<svg version="1.2" xmlns="http://www.w3.org/2000/svg" viewBox="0 0 975 717" width="975" height="717">
	<title>FPK Logo</title>
	<defs>
		<linearGradient id="g1" x1="467.7" y1="430.7" x2="487.3" y2="430.7" gradientUnits="userSpaceOnUse">
			<stop offset="0" stop-color="#006490"/>
			<stop offset="1" stop-color="#2493c5"/>
		</linearGradient>
		<linearGradient id="g2" x1="480.9" y1="417.7" x2="492.1" y2="417.7" gradientUnits="userSpaceOnUse">
			<stop offset="0" stop-color="#006490"/>
			<stop offset="1" stop-color="#2493c5"/>
		</linearGradient>
		<linearGradient id="g3" x1="471.1" y1="411.3" x2="486.2" y2="411.3" gradientUnits="userSpaceOnUse">
			<stop offset="0" stop-color="#006490"/>
			<stop offset="1" stop-color="#2493c5"/>
		</linearGradient>
	</defs>
	<style>
		.s0 { fill: #0100c8 } 
		.s1 { fill: #e96e03 } 
		.s2 { fill: #0c0dc3 } 
		.s3 { fill: #ffffff } 
		.s4 { fill: #e27300 } 
		.s5 { fill: #f4ce97;stroke: #000000 } 
		.s6 { fill: #f1d6bb;stroke: #000000 } 
		.s7 { fill: #000000 } 
		.s8 { fill: none;stroke: #000000;stroke-linecap: round;stroke-linejoin: round;stroke-width: 2 } 
		.s9 { fill: #ebf4f6;stroke: #000000;stroke-width: 2 } 
		.s10 { fill: none;stroke: #000000;stroke-width: 2 } 
		.s11 { fill: url(#g1);stroke: #000000;stroke-width: 1.4 } 
		.s12 { fill: #006490;stroke: #000000 } 
		.s13 { fill: url(#g2);stroke: #000000 } 
		.s14 { fill: url(#g3);stroke: #000000 } 
		.s15 { fill: #005074;stroke: #000000;stroke-width: 1.5 } 
		.s16 { fill: #1d2493 } 
		.s17 { fill: #0101c9 } 
	</style>
	<g id="Logo">
		<g id="Back">
			<path id="Left" fill-rule="evenodd" class="s0" d="m1 626l238.5-319 43.7 58.4-187.9 260.6zm477 0h-312.6l153.5-212.8z"/>
			<path id="Right" fill-rule="evenodd" class="s0" d="m498 626l159.8-213.8 154 213.8zm238.5-319l238.5 319h-92.3l-188.9-262z"/>
			<path id="Shape 2" fill-rule="evenodd" class="s1" d="m278.6 286l209.4-285.9 209.4 285.9-30.5 41.5-178.9-247.7-178.6 248.3zm209.4 285.8l-142.8-195 143.8-199.2 142.6 198.1z"/>
			<path id="Blue" class="s2" d="m544 228.6c-12.5 0-22.6-10.1-22.6-22.6 0-12.5 10.1-22.6 22.6-22.6 12.5 0 22.6 10.1 22.6 22.6 0 12.5-10.1 22.6-22.6 22.6z"/>
			<path id="Blue copy" class="s3" d="m544 227.3c-11.8 0-21.3-9.5-21.3-21.3 0-11.8 9.5-21.3 21.3-21.3 11.8 0 21.3 9.5 21.3 21.3 0 11.8-9.5 21.3-21.3 21.3z"/>
			<path id="Blue copy 2" class="s2" d="m544 217c-6.1 0-11-4.9-11-11 0-6.1 4.9-11 11-11 6.1 0 11 4.9 11 11 0 6.1-4.9 11-11 11z"/>
			<path id="Blue copy 3" class="s4" d="m772.6 547.1c-12.5 0-22.6-10.1-22.6-22.5 0-12.5 10.1-22.6 22.6-22.6 12.4 0 22.5 10.1 22.5 22.6 0 12.4-10.1 22.5-22.5 22.5z"/>
			<path id="Blue copy 4" class="s3" d="m772.6 545.9c-11.8 0-21.4-9.6-21.4-21.3 0-11.8 9.6-21.4 21.4-21.4 11.7 0 21.3 9.6 21.3 21.4 0 11.7-9.6 21.3-21.3 21.3z"/>
			<path id="Blue copy 5" class="s4" d="m772.6 535.5c-6.1 0-11-4.9-11-10.9 0-6.1 4.9-11 11-11 6 0 10.9 4.9 10.9 11 0 6-4.9 10.9-10.9 10.9z"/>
		</g>
		<g id="Inner">
			<path id="Shape 3" class="s5" d="m426.7 357.7c0 0 56.9-26.4 82.3-44.7 0 0-2.8 32.5 39.4 94.1-65.8 8.7-99.3 39-99.3 39-22.7-47.3-22.4-88.4-22.4-88.4z"/>
			<path id="Shape 2" class="s6" d="m492.2 312.2c19 58.8 38.5 83.5 38.5 83.5-42.6 9.3-69 25-88.7 40.8-12.7-36.6-18.3-49-22.8-86.3 18 5.8 73-38 73-38z"/>
			<path id="Shape 6" class="s7" d="m444 428c-1.1 0-2-0.9-2-2 0-1.1 0.9-2 2-2 1.1 0 2 0.9 2 2 0 1.1-0.9 2-2 2z"/>
			<path id="Shape 6 copy" class="s7" d="m432 391c-1.1 0-2-0.9-2-2 0-1.1 0.9-2 2-2 1.1 0 2 0.9 2 2 0 1.1-0.9 2-2 2z"/>
			<path id="Shape 6 copy 2" class="s7" d="m424 358c-1.1 0-2-0.9-2-2 0-1.1 0.9-2 2-2 1.1 0 2 0.9 2 2 0 1.1-0.9 2-2 2z"/>
			<path id="Shape 3" class="s8" d="m456.4 406.8c0 0 6-7.2 9-9 5-3.6 4 3.2 7.4 2 4.5-1.6 3-6.2 9.2-8.4 4-1.4 3 3 7.2 0.8 2.9-1.5 6.2-8.6 10.6-6.4"/>
			<path id="Shape 5" class="s9" d="m466 373c-2.5-5.2 2-10.1 4.2-11.8 2.3-1.7 7.5-5.2 7-11-0.2-3.2 4.2-6.4 6.5-7.2 5.7-2 10.1-0.2 8.1-2.4-3-3.3 5.2-8 9-8.2 6.6-0.4 8.2-1.6 6-2.4-4.5-1.6 4.2-7.8 7.2-8 6-0.4 7.8-2 5-3.4-4-2 27.2-16.4 34-6.6 2.2 3.2-1 11.7-4 14-3 2.3-4.5 3-8 3-12.3 0-2.3 0.2-3 5-0.8 4.8-10 6.5-14 5-4-1.5 4.6 2.4 1.2 9.4-1.5 3.1-5.5 5.1-8.2 4.6-3.4-0.6 0.9 3-7 3-12.6 0-9.2 0-1.5 2.7-0.5 7.1-3.3 5.3-5.5 8.3-2.3 3-5.2 1.3-9 1-13.3-1 7.6-0.2-4 8-3 2.2-2-1.5-6-1-4 0.5-2.8 5-7 6-4.3 1-7-2-7-2 0 0-1.5-0.8-4-6z"/>
			<path id="Shape 4" class="s10" d="m449 407c0 0 35.5-61.2 89-93"/>
			<g id="Ink">
				<path id="Shape 6" class="s11" d="m485.7 438.3c-10.8 0-19.6-2.2-19.5-5 0.2-10.6-2.6-13.7 19-3.1 22.8-12 20-7.5 20 3.1 0 2.8-8.7 5-19.5 5z"/>
				<path id="Shape 6 copy 3" class="s12" d="m485.5 430c-10.8 0-19.5-2.2-19.5-5 0-2.8 8.7-5 19.5-5 10.8 0 19.5 2.2 19.5 5 0 2.8-8.7 5-19.5 5z"/>
				<path id="Shape 6 copy 6" class="s13" d="m485.7 425.4c-11.5 0.3-11.7-2.6-11.7-5.4-0.1-6.5 0-12.7 11.2-8.8 10.3-3.7 11.1 2.4 11.1 8.8 0 2.8 0.1 5.1-10.6 5.4z"/>
				<path id="Shape 6 copy 4" class="s14" d="m485.7 417.3c-11.5 0.4-15.6-2.2-15.6-5-0.1-6.5-2.4-10.1 15.1-1.1 16.7-9.9 14.9-5.7 14.9 0.7 0 2.7-3.7 5.1-14.4 5.4z"/>
				<path id="Shape 6 copy 5" class="s15" d="m485.5 411c-7.5 0.1-15.5-1.9-15.6-3.1 0-1.5 7.9-3.8 15.4-3.9 7.5-0.1 14.6 1.9 14.6 3.6 0 1.1-6.9 3.3-14.4 3.4z"/>
			</g>
		</g>
		<g id="Text">
			<path id="الكلـية المتعــددة التخصصــات - " fill-rule="evenodd" class="s16" d="m35.7 698h-18.5v-9.3h18.5zm34.3-46.4l6 3.1-3.7 6.2-4.7-2.7-2.7 5.3-6.3-3.4 3.5-5.9 5 2.5zm9.3 49.6q-1.2 0-2.2-0.5-1.9-0.9-3.3-3.5-1.8-3.5-2.3-9.6-2.3 2.8-3.6 3.9-1.8 1.7-3 1.7-0.7 0-1.7-0.2l-4-0.8q-2.7-0.5-3.3-0.7-0.6-0.3-0.6-0.9 0-0.9 2.3-5.6 2.4-4.8 3.4-5.9 0.9-0.9 3-2.3 1.3-0.9 3.6-2.3l1.8-1q-0.1-0.5-0.2-0.9 0-0.5 0-1 0-1.2 0.6-3.1 0.6-1.9 2.1-4.8l3.2 20.8q0.8 4.8 2 6.6 0.8 1.1 2.2 1.1h51.1q-1.3-1.6-2.6-2.7-1-1-2.7-2.3-1.9-1.5-3.8-2.9l-1 1.2q-3-2.9-3.6-3.6-1.7-1.9-1.7-4.3 0-3.4 0.5-4.7 0.7-2 2.8-3.5 2-1.3 4.2-2.4 1.7-0.8 4.6-2 1.4-0.5 5.7-2.2v7.9q-0.2 0-2.8 0.9-3.3 1-5.3 1.8-2.8 1.2-2.8 1.7 0 0.3 2.4 2.6 3.3 3.1 5.5 5.7 3.6 4.3 5.9 8.6v0.2h15.3q-0.4-2.3-1.3-3.8-0.5-0.9-2.4-3l2.7-7.9q2.5 2.8 3.4 5.9 0.9 3 1 8.8h15.3q-0.4-2.3-1.4-3.8-0.5-0.9-2.3-3l2.6-7.9q2.6 2.8 3.5 5.9 0.9 3.1 0.9 9.2v8.6zm-8.6-18.7l-0.7-4q-1.1 0.5-1.7 0.8-1.8 0.9-2.9 1.8-0.8 0.6-1.4 1.2-0.7 0.7-0.7 1.1 0 0.5 1.2 0.7 1.2 0.3 2.3 0.3 0.8 0 1.6-0.4 0.8-0.4 2.3-1.5zm72.4 21.4l7.8 4.3-4 7.5-7.8-4.2zm23.2-0.3l6.1 3.4-3.7 6.8-4.7-2.6-2.7 5.2-6.3-3.4 3.5-6.4 5 2.4zm36.3-11.8v0.3h21.5q-4-4.1-7.5-5.9-3-1.7-5.9-1.7-0.9 0-1.7 0.1-0.7 0.1-2 0.4 1.8-4.2 4.1-6.2 2.2-2 5.1-2 2.2 0 4.3 1.1 2 1.1 4.6 3.4 2 1.9 5.7 5.8 2.5 2.8 3.8 3.6 1.3 0.9 4 1.4v9.1h-36v0.7q0 2.1-2.3 5.4-2.4 3.3-5.5 5.8-3.5 2.7-6 2.7-2.9 0-6.3-1.6-3-1.5-9.2-5.8l1.4-2q3 2 4.8 2.7 1.9 0.7 4 0.7 2.3 0 4.7-1.3 2.3-1.3 6.3-4.8 5.5-5 5.5-7.6 0-1.3-1-3.5-1.3-2.5-3-4.1l1.9-8.9q2.3 2.3 3.5 5.3 1.2 3 1.2 6.9zm14.7-30.1l7.8 4.1-4 7.4-7.9-4zm62.8 36.2h-18.5v-9.3h18.5zm46.2-31.7l6.1 3.4-3.7 6.8-4.7-2.6-2.7 5.2-6.2-3.4 3.4-6.4 5 2.4zm18 25.5v9.4h-28.2q-4 0-5.4-0.1-1.3-0.1-2.8-0.7-2.8-0.9-4.6-3.8-1.7-2.8-1.7-6.4 0-1.3 0.1-2.4 0.1-1.1 0.5-2.5 0.6-2.2 1.3-3.7 0.7-1.4 2.5-3.9l1.9 1.3q-1.5 2.6-2 4.2-0.5 1.5-0.5 3 0 1.9 1.2 3.4 1.2 1.5 3.2 2 1.2 0.3 3.1 0.4 1.9 0.2 4 0.2h24.2q-0.9-2.5-1.5-3.6-0.7-1.3-2.3-3.2l3-7.7q2.5 3.5 3.3 6.5 0.7 2.6 0.7 7.6zm11.4 9.4q-4 0-5.7-3.2-2-3.5-2-11.8v-9.5q0-3.2-0.9-5-0.4-0.9-2-2.5l3.6-8.3q2 2.7 2.8 5.3 0.9 3 0.9 7.7v6.5q0 6.9 0.9 9.6 0.7 2.2 2.4 2.2h29.5 4.8q3.9 0 5.9-2 2.4-2.2 3-7.7l2.3 0.3q-0.1 1.2-0.1 1.9-0.1 2.2-0.1 3.5 0 1.9 1 3 1 1 2.6 1 1.7 0 3-0.7 1.4-0.6 4.4-2.7l12-8.5q2.1-1.5 3.2-2.2 2.5-1.4 4.7-1.4 3.8 0 6 2.6 2.7 3.1 2.7 9.2v3.7h2.4q3.9 0 5.9-2 2.4-2.2 3-7.7l2.3 0.3q-0.1 1.2-0.1 1.9-0.2 2.2-0.2 3.5 0 1.9 1.1 3 1 1 2.6 1 1.6 0 3-0.7 1.4-0.6 4.4-2.7l12-8.5q2.1-1.5 3.2-2.2 2.5-1.4 4.7-1.4 3.8 0 6 2.6 2.7 3.1 2.7 9.2v3.7h21.4q-4-4.2-7.5-6-3-1.6-5.9-1.6-0.9 0-1.6 0.1-0.7 0.1-2.1 0.4 1.8-4.2 4.1-6.2 2.2-2 5.1-2 2.2 0 4.3 1 2 1.1 4.6 3.5 2 1.8 5.7 5.8 2.5 2.8 3.8 3.6 1.4 0.8 4 1.4h15.3q-0.4-2.3-1.3-3.8-0.6-0.9-2.4-3l2.7-7.9q2.5 2.8 3.4 5.9 0.9 3 0.9 8.8h12.1l-4-22.6-2.2-1.3q0-2 0.6-4 0.8-2.5 2.6-6l1.6 0.8q0 0.2-0.2 1.1 0 1 1.5 2.1 1.2 0.9 3.9 2-0.3 2.2-0.9 4.2-0.6 2-1.3 3.6l-1.2-0.5 3.6 20.6v9h-106.2q-2.3 0-3.8-1.1-1.4-1.2-2.4-3.9-2.1 3-4.1 4-1.8 1-4.7 1h-2.4-35.5q-2.4 0-3.9-1.1-1.4-1.2-2.4-3.9-2.1 3-4.1 4-1.8 1-4.7 1h-2.4zm80.2-12.4q0-1.5-2.4-2.4-2-0.8-4.4-0.8-2.2 0-5 1.4-2.8 1.4-8 5.2h8.8q11 0 11-3.4zm53 0q0-1.5-2.4-2.4-2-0.8-4.4-0.8-2.2 0-5 1.4-2.8 1.4-8 5.2h8.7q11.1 0 11.1-3.4zm19.3-27.1l7.8 4.2-4 7.4-7.8-4.1zm33.3 0.6l6.1 3.4-3.7 6.8-4.8-2.6-2.7 5.2-6.2-3.4 3.5-6.4 5 2.4zm35.1 29.2q0 3-0.7 5.5-0.7 2.4-2.7 6.5l-2-0.8q0.8-4.2 0.8-6.9 0-2-0.4-5.9-0.3-4-0.8-7.8-0.5-3.8-1.6-9.1-0.4-1.9-0.4-2.6 0-1 1-3.5 1-2.5 2.9-6l2 11.8q1.1 6.7 1.6 11.6 0.3 3.8 0.3 7.2zm34.6-32.5l6.1 3.4-3.6 6.8-4.8-2.7-2.7 5.3-6.2-3.4 3.5-6.4 4.9 2.4zm7.8 29.7q0 2-0.3 4.1-0.3 2-0.8 3.3-1 2.5-4.7 4.5-3.4 1.7-6.4 1.7-2.6 0-4.2-1.7-1.5-1.8-1.5-4.8 0-2.7 0.8-5.4 0.8-2.6 2.8-6.6l-1.2-0.8q0.6-1.5 1.6-3.7 0.9-2.2 1.7-3.6l3.3 1.9q2.1 1.3 4.1 2.8 2.7 2 3.8 3.9 1 1.7 1 4.4zm-5 2.7q0-0.6-2.3-2.6-2.3-2-4.6-3.5-2.1 3.4-2.1 5.6 0 1.1 0.9 1.9 0.9 0.7 2.1 0.7 1.7 0 3.9-0.7 2.1-0.8 2.1-1.4zm31.2-0.9v10.7h-15.2q-2.2 0-3.3-0.9-1.5-1.2-1.5-3.7 0-1.5 0.1-3.2 0.2-1.7 0.5-3.4l1.3-0.1q0.3 1.2 1.2 1.7 0.9 0.6 2.2 0.6h11.5q-0.7-4.9-2.6-7.8-1.6-2.5-4.4-4.2l2.4-10.4q4.3 3.2 6.2 8.3 1.6 4.7 1.6 12.4zm23.6 0v1.7h28.4q2.8 0 3.9-0.3 1.1-0.3 3-1.3-1-2-1.7-2.8-0.9-1.1-1.9-1.1-0.4 0-0.7 0.3-0.3 0.2-0.7 0.9l-1.5-0.2q0-6 2.1-8.5 2.1-2.6 6.6-2.6 4.7 0 7.3 1.8 2.7 1.8 2.7 5 0 1.6-0.7 3.2-0.7 1.5-2.6 4.2 0.4 0.6 1.2 1 0.9 0.4 1.6 0.4h20.2q-0.3-2.3-1.3-3.9-0.5-0.8-2.3-3l2.6-7.9q2.6 2.9 3.5 6 0.9 2.9 0.9 8.8h4.3q3 0 4.8-0.8 2.3-0.9 3.1-3.2 1.9-4.2 4.9-6.9 2.7-2.5 4.5-2.5 1.7 0 4.3 5.2 2.1 4.3 2.5 8.2h12.2l-4.1-22.6-2.1-1.4q0-1.9 0.6-3.9 0.7-2.6 2.6-6l1.5 0.8q0 0.1-0.1 1 0 1.1 1.4 2.1 1.2 1 4 2.1-0.3 2.1-0.9 4.1-0.6 2.1-1.3 3.7l-1.3-0.5 3.7 20.6v9h-18.4v-0.2q-2.7-0.3-6-1.2-4.2-1.2-7.4-2.8-1.9 2.9-4.8 3.8-1.3 0.4-3.7 0.4h-27.9q-2.7 0-4.7-1.1-2-1-3.2-3.4-2.2 2.7-5.7 3.8-2.3 0.7-5 0.7h-43.6q-2.2 0-3.4-0.9-1.4-1.2-1.4-3.7 0-1.5 0.1-3.2 0.2-1.7 0.5-3.4l1.2-0.1q0.3 1.2 1.2 1.7 0.9 0.6 2.3 0.6h11.5q-0.8-4.9-2.7-7.8-1.6-2.5-4.4-4.2l2.4-10.4q4.4 3.2 6.2 8.3 1.7 4.7 1.7 12.4zm64-28.2l6.1 3.4-3.7 6.8-4.8-2.7-2.7 5.3-6.2-3.4 3.5-6.5 4.9 2.5zm28.9 28.8q0-0.7-1.4-2.5-1.6-2-2.8-2-1.3 0-2.2 3 1.7 0.6 2.6 1 2.7 1 3.1 1 0.7 0 0.7-0.5zm34.8 0.4q0 3-0.7 5.4-0.7 2.4-2.7 6.6l-2-0.8q0.8-4.3 0.8-6.9 0-2.1-0.4-6-0.3-3.9-0.8-7.7-0.5-3.9-1.7-9.2-0.4-1.9-0.4-2.5 0-1.1 1.1-3.5 1-2.5 2.9-6l2 11.7q1.1 6.7 1.6 11.6 0.3 3.8 0.3 7.3zm36.3-40l6 3.1-3.7 6.2-4.7-2.7-2.7 5.3-6.3-3.4 3.5-5.9 5 2.5zm9.3 49.6q-1.2 0-2.2-0.5-1.9-0.9-3.3-3.5-1.8-3.5-2.3-9.6-2.3 2.8-3.6 3.9-1.8 1.7-3 1.7-0.7 0-1.6-0.2l-4.1-0.8q-2.7-0.5-3.3-0.7-0.6-0.2-0.6-0.8 0-0.9 2.4-5.7 2.3-4.8 3.3-5.9 0.9-0.9 3-2.3 1.3-0.9 3.6-2.3l1.8-1q-0.1-0.4-0.1-0.9-0.1-0.5-0.1-0.9 0-1.3 0.6-3.2 0.6-1.9 2.1-4.7l3.2 20.7q0.8 4.9 2 6.6 0.8 1.1 2.2 1.1h19.7q-0.3-2.2-1.3-3.8-0.5-0.9-2.4-3l2.7-7.9q2.5 2.8 3.4 5.9 1 3 1 8.8h25.7l-4.1-22.5-2.1-1.4q0-2 0.6-4 0.7-2.5 2.6-6l1.5 0.8q0 0.2-0.1 1.1 0 1.1 1.4 2.1 1.2 0.9 4 2.1-0.3 2.1-0.9 4.1-0.6 2-1.3 3.6l-1.3-0.4 3.7 20.5h19.4q-1.3-1.5-2.5-2.7-1-0.9-2.7-2.3-2-1.4-3.8-2.9l-1.1 1.2q-3-2.9-3.6-3.5-1.6-1.9-1.6-4.4 0-3.3 0.4-4.7 0.7-1.9 2.9-3.4 1.9-1.4 4.1-2.5 1.8-0.8 4.7-2 1.3-0.5 5.6-2.2v7.9q-0.1 0-2.8 0.9-3.3 1.1-5.2 1.9-2.8 1.1-2.8 1.6 0 0.3 2.3 2.6 3.3 3.2 5.5 5.7 3.7 4.3 5.9 8.6v0.2h12.1l-4-22.5-2.2-1.4q0-2 0.6-4 0.8-2.5 2.6-6l1.6 0.8q0 0.2-0.2 1.1 0 1.1 1.5 2.1 1.2 0.9 3.9 2.1-0.3 2.1-0.9 4.1-0.6 2-1.3 3.6l-1.2-0.4 3.6 20.5v9zm-8.6-18.7l-0.7-4q-1.1 0.5-1.7 0.8-1.8 1-2.9 1.8-0.8 0.7-1.3 1.2-0.7 0.7-0.7 1.1 0 0.5 1.2 0.7 1.1 0.3 2.3 0.3 0.7 0 1.5-0.4 0.8-0.4 2.3-1.5zm25 21.2l6.1 3.4-3.6 6.8-4.8-2.7-2.7 5.3-6.2-3.4 3.5-6.5 4.9 2.5zm89.6-12.1q0 2.9-0.7 5.4-0.7 2.4-2.7 6.5l-2-0.8q0.8-4.2 0.8-6.9 0-2-0.3-5.9-0.4-4-0.9-7.8-0.5-3.8-1.6-9.1-0.4-1.9-0.4-2.6 0-1 1-3.5 1.1-2.5 2.9-6l2.1 11.8q1.1 6.7 1.5 11.6 0.3 3.8 0.3 7.3z"/>
			<path id="Khouribga " fill-rule="evenodd" class="s17" d="m598 299.7l-4.8-6.7 3.6-17.1-4.5-1.8-8.3 6-4-5.7 22.8-16.3 4 5.7-10.3 7.3 19 4.8 4.7 6.5-17.9-4.6zm20-1.7v0.1q2.8-0.3 4.9 0.6 2.1 1 3.7 3.3 2.3 3.3 1.9 6.3-0.5 3-3.8 5.3l-11.1 7.9-3.9-5.3 9.9-7q4.6-3.3 2-7-1.4-1.9-3.7-2.1-2.3-0.2-4.5 1.4l-9.4 6.7-3.8-5.4 24.1-17.1 3.8 5.3-6.6 4.7q-1.7 1.3-3.5 2.3zm22 42q-4.3 3.1-8.7 2-4.4-1-7.9-5.9-3.4-4.9-3-9.4 0.5-4.4 4.8-7.5 4.2-3 8.6-2 4.4 1 7.9 6 3.6 5 3.1 9.4-0.4 4.3-4.8 7.4zm-4-5.6q3.1-2.2 3.7-4.4 0.5-2.2-1.1-4.5-3.5-4.9-9.4-0.6-3 2.1-3.7 4.3-0.6 2.3 1 4.6 3.5 4.9 9.5 0.6zm15.6 3.3l3.8 5.4-9.8 7q-4.7 3.3-2 7 1.3 1.9 3.6 2.1 2.3 0.2 4.5-1.4l9.4-6.7 3.8 5.4-13.6 9.7q-2.2 1.6-3.8 2.9l-3.7-5.1q2.2-1.9 3.4-2.7l-0.1-0.1q-2.8 0.4-4.8-0.6-2.1-1-3.7-3.3-2.4-3.3-1.9-6.3 0.4-2.9 3.7-5.3zm3.6 42.1l-3.9-5.4 13.5-9.6q1.4-1 2.3-1.8 1-0.7 1.7-1.3l3.6 5.1q-0.2 0.3-1.6 1.5-1.5 1.1-1.9 1.5 2.4-0.5 3.6-0.4 1.2 0 2.2 0.6 0.9 0.6 1.8 1.9 0.8 1 1 1.8l-3.8 2.7q-0.7-1.5-1.4-2.5-1.5-2-3.6-2.1-2.2-0.1-4.9 1.8zm31.5 0.4l-3.8-5.3 3.4-2.4 3.8 5.3zm-20.7 14.8l-3.8-5.3 17.5-12.6 3.8 5.4zm26.7 18.7q-4.3 3.1-8.2 2.8-3.9-0.3-6.6-4.2-1.6-2.1-1.9-4.3-0.3-2.2 0.6-4.2-0.6 0.4-1.7 1-1 0.7-1.3 0.8l-3.8-5.3q1.7-0.9 4.2-2.7l20-14.3 3.8 5.4-6.7 4.8-2.9 1.9 0.1 0.1q4.6-0.6 8.1 4.2 2.6 3.7 1.6 7.3-1 3.7-5.3 6.7zm-4-5.6q3-2.1 3.7-4.1 0.7-2.1-0.8-4.3-1.6-2.1-3.9-2.2-2.4 0-5.3 2.1-2.8 2-3.5 4.2-0.8 2.2 0.8 4.4 3 4.3 9-0.1zm-2.6 29.9q-2.7-3.7-3.1-6.9-0.4-3.2 1.5-5.3l4.3 4.9q-0.8 1.1-0.8 2.4 0.1 1.4 1.2 2.9 1.6 2.3 3.5 2.5 1.9 0.2 4.2-1.5l0.9-0.6 1.8-1.2v-0.1q-4.5 0.6-8-4.3-2.6-3.6-1.7-7.2 0.9-3.7 5.2-6.7 4.3-3.1 8.1-2.7 3.8 0.4 6.6 4.3 3.2 4.5 1.2 8.5h0.1q0.6-0.4 1.6-1 1-0.6 1.4-0.7l3.6 5.1q-1.8 1.1-4.1 2.8l-13 9.2q-3.7 2.7-7.4 1.5-3.7-1.1-7.1-5.9zm19.3-6.9q2.7-2 3.4-4.2 0.7-2.2-0.8-4.3-3.1-4.3-8.9-0.1-5.7 4.1-2.7 8.3 1.5 2.1 3.8 2.2 2.4 0.1 5.2-1.9zm1.7 22.1q-2.2-3-2-5.6 0.2-2.7 2.7-4.5 2.8-1.9 5.7-0.9 2.9 1.1 5.8 5.1l3.2 4.4 0.9-0.7q1.7-1.2 2-2.5 0.4-1.3-0.8-2.9-1-1.5-2.1-1.8-1.1-0.3-2.5 0.5l-3.8-5.7q2.9-1.4 5.8-0.1 3 1.3 5.7 5.2 2.8 3.9 2.7 7.2-0.1 3.3-3.1 5.4l-6.4 4.6q-1.5 1.1-1.8 1.8-0.3 0.8 0.4 1.8 0.4 0.6 0.9 1.1l-2.4 1.7q-0.5-0.4-0.8-0.7-0.4-0.3-0.7-0.7-0.3-0.3-0.7-0.7-0.3-0.4-0.7-1-1.5-2-1.3-3.6 0.2-1.6 1.7-2.9l-0.1-0.1q-5.1 0.2-8.3-4.4zm12 0.9l0.9-0.6-2-2.8q-1.4-1.8-2.3-2.4-0.8-0.6-1.7-0.6-0.8 0.1-1.8 0.8-1.3 0.8-1.4 1.9-0.1 1.2 0.7 2.3 0.9 1.2 2.2 1.9 1.3 0.6 2.8 0.5 1.4-0.2 2.6-1z"/>
			<path id="Faculté Polydisciplinaire " fill-rule="evenodd" class="s17" d="m123.8 605.1l12.6-17.3 3 2.2-8.5 11.7 4.8 3.5 6-8.2 3.1 2.2-6 8.2 10.4 7.6-4.1 5.6zm26.8-17l-3.7-0.9q0.4-0.9 0.8-2 0.6-1.1 1.2-2.2 0.6-1.2 1.4-2.5 0.7-1.2 1.6-2.4 1.2-1.6 2.4-3 1.3-1.3 2.4-1.9 1.2-0.7 2.4-0.7 1.1 0 2.3 0.9l6 4.4q1 0.7 1.8 1.3 0.9 0.5 1.7 1 0.3 0.2 0.6 0.3 0.2 0.2 0.5 0.3 0.2 0.1 0.5 0.2 0.3 0.1 0.6 0.2-0.7 1.4-1.4 2.8-0.7 1.3-1.4 2.7-0.6 0-1.1-0.2-0.6-0.2-1.2-0.5l-0.2 0.3q0 1.1-0.2 2-0.1 1-0.4 1.9-0.4 0.9-0.9 1.8-0.5 0.9-1.2 1.8-1 1.4-2.1 2.4-1.1 1-2.2 1.6-1.2 0.5-2.3 0.4-1.1-0.1-2.2-0.8-0.9-0.7-1.4-1.4-0.5-0.8-0.7-1.7-0.2-0.8-0.2-1.8 0.1-0.9 0.3-1.9 0.6-2.1 1.7-4.1 1.2-2.2 2.7-4.2l1.2-1.7-1.9-1.4q-0.5-0.4-1-0.4-0.5 0-1 0.3-0.4 0.3-0.8 0.7-0.5 0.5-0.9 1.1-1.2 1.7-2.1 3.6-0.9 1.8-1.6 3.7zm14.5-3.8l-3-2.2-0.3 0.4q-1 1.4-1.8 2.8-0.8 1.4-1.2 2.7-0.4 1.2-0.2 2.2 0.1 1 0.9 1.6 1 0.7 2 0.3 1-0.4 2-1.7 0.5-0.6 0.8-1.4 0.4-0.7 0.6-1.5 0.2-0.8 0.3-1.7 0.1-0.8-0.1-1.5zm20.4-26.7l3.8 0.9q-0.4 1-0.9 2.1-0.5 1.1-1.2 2.2-0.6 1.1-1.2 2.1-0.7 1.1-1.3 1.9-2.1 2.9-4.1 4.6-1.9 1.6-3.8 2.2-1.9 0.5-3.8 0-1.8-0.6-3.7-1.9-2-1.5-3-3.3-1.1-1.8-1.1-4-0.1-2.1 0.9-4.6 0.9-2.5 2.9-5.3 1.2-1.6 2.6-3 1.3-1.5 2.7-2.7l1.9 3.4q-1.2 1-2.2 2.1-1 1-1.8 2.1-1.2 1.6-1.6 3-0.4 1.3-0.2 2.5 0.1 1.2 0.8 2.2 0.7 1 1.8 1.8 2.6 1.9 4.7 1.6 2.2-0.3 4.2-3.1 1.3-1.8 2.1-3.4 0.8-1.7 1.5-3.4zm2.3-28.2l4-5.5 9.5 6.9q1.2 0.9 2 1.5 0.9 0.5 1.5 0.9 0.4 0.1 0.7 0.3 0.2 0.1 0.5 0.2 0.2 0.1 0.5 0.2 0.3 0.1 0.7 0.2-0.7 1.5-1.5 3-0.7 1.4-1.5 2.9-0.4-0.1-0.8-0.2-0.4-0.1-0.8-0.3-0.4-0.1-0.9-0.4-0.4-0.2-1-0.6l-0.2 0.3q0.3 1.2 0.3 2.3 0 1.1-0.2 2.3-0.2 1-0.7 2.2-0.5 1.1-1.4 2.2-1.8 2.6-3.6 3.5-1.8 0.9-3.7 0.5-1.1-0.2-2.1-0.7-1.1-0.6-2.3-1.4l-9-6.6 4-5.5 10.2 7.4q1.3 0.9 2.5 0.6 1.3-0.3 2.3-1.6 0.5-0.8 0.8-1.7 0.3-1 0.3-2 0.1-1 0-1.9-0.2-1-0.4-1.9zm6-20.8l15.3 11.2q1.3 0.8 2.1 1.4 0.9 0.6 1.5 1 0.4 0.2 0.7 0.3 0.2 0.1 0.5 0.3 0.3 0.1 0.5 0.2 0.3 0.1 0.7 0.2-0.7 1.5-1.4 3-0.8 1.5-1.7 3-0.8-0.2-1.7-0.5-0.9-0.4-1.8-1l-18.7-13.5zm8.1-6.1l4-5.5 3.5 2.6 5.1-7.1 3 2.2-5.1 7 7.4 5.4q0.7 0.5 1.2 0.8 0.6 0.2 1 0.2 0.5-0.1 0.9-0.4 0.4-0.3 0.9-1 0.5-0.6 1-1.6 0.5-0.9 1.2-2.2 0.3 0.1 0.8 0.2 0.4 0.1 0.9 0.2 0.5 0.1 1 0.2 0.4 0.1 0.8 0.2-0.3 0.7-0.7 1.5-0.4 0.9-0.9 1.8-0.6 0.9-1.1 1.7-0.6 0.9-1.1 1.7-0.6 0.7-1.1 1.3-0.5 0.7-1.1 1.2-0.6 0.5-1.1 0.9-0.6 0.4-1.1 0.6-1.3 0.4-2.6-0.1-1.4-0.5-3.1-1.8l-7.2-5.3-2.2 3.1-3-2.2 2.2-3zm17.1-28.7l-3.4-0.6q0.2-1 0.6-2 0.4-1.1 1-1.9 0.4-0.5 0.9-0.9 0.5-0.5 1-0.7 0.5-0.2 1-0.2 0.5 0.1 1 0.4 0.5 0.4 0.9 1 0.3 0.6 0.6 1.5 0.3 0.9 0.5 2.1 0.3 1.2 0.7 2.9l-2.3 3.2zm22.8 6.2l3.7 0.8q-0.4 1-0.9 2.1-0.5 1.1-1.1 2.3-0.7 1.1-1.4 2.3-0.7 1.1-1.5 2.2-3.8 5.3-7.7 6.6-3.8 1.4-7.7-1.4-1.7-1.3-2.8-2.9-1.2-1.7-1.5-3.8-0.2-2 0.5-4.5 0.8-2.5 2.9-5.4 3.6-5 7.4-6.1 3.8-1 7.8 1.9l1.2 0.9-10.9 14.9q1.1 0.6 2.1 0.9 0.9 0.3 1.9 0 1-0.2 2.1-1.1 1-0.9 2.2-2.5 1-1.4 2-3.2 0.9-1.8 1.7-4zm-14.5 7.9l6.7-9.3q-3.8-2.5-6.9 1.8-1.6 2.2-1.5 4.1 0.1 1.8 1.7 3.4zm11.1-40.7l8.2-11.2q1.5-2.2 3.1-3.5 1.7-1.4 3.3-1.9 1.7-0.6 3.3-0.3 1.6 0.2 3.2 1.4 1.7 1.2 2.4 2.9 0.7 1.6 0.6 3.6-0.2 2-1.2 4.3-1 2.3-2.8 4.8-0.8 1.1-1.6 2.1-0.7 0.9-1.4 1.6l8.3 6-4.1 5.7zm6.9-3.6l7.4 5.3q0.6-0.5 1-1.1 0.5-0.7 1-1.3 1.1-1.5 1.8-2.8 0.6-1.4 0.8-2.5 0.1-1.1-0.3-2-0.4-0.9-1.5-1.7-1-0.7-1.9-1-1-0.2-1.9 0.2-0.9 0.3-1.9 1.2-1 0.9-2.1 2.4zm23.9-27.1q1.9-2.7 3.9-4.2 2-1.5 4-1.9 2-0.5 3.9 0 2 0.4 3.7 1.7 1.7 1.2 2.7 2.9 1.1 1.7 1.3 3.8 0.1 2-0.7 4.4-0.8 2.3-2.7 5-1.9 2.6-3.9 4.1-2 1.5-4 2-2 0.5-4 0-1.9-0.5-3.6-1.7-1.7-1.3-2.8-3-1-1.7-1.2-3.7-0.1-2 0.7-4.4 0.8-2.4 2.7-5zm2.9 2.1q-1.1 1.4-1.3 2.6-0.3 1.3 0 2.3 0.3 1 1.1 1.9 0.8 0.9 1.9 1.6 1.1 0.8 2.2 1.3 1 0.5 2.1 0.5 1.1 0 2.2-0.7 1-0.6 2.1-2 1-1.5 1.3-2.7 0.3-1.2 0-2.3-0.3-1-1.1-1.8-0.8-0.9-1.9-1.7-1.1-0.8-2.2-1.3-1-0.5-2.1-0.5-1.1 0.1-2.2 0.7-1 0.6-2.1 2.1zm6-26.1l15.3 11.1q1.2 0.9 2 1.5 0.9 0.6 1.6 0.9 0.3 0.2 0.6 0.4 0.3 0.1 0.5 0.2 0.3 0.2 0.6 0.3 0.3 0 0.6 0.1-0.7 1.6-1.4 3.1-0.8 1.5-1.6 3-0.9-0.2-1.8-0.5-0.9-0.4-1.8-1l-18.6-13.6zm20-15.1l4.1-5.6 15.3 11.1q1.7 1.3 2.3 2.9 0.7 1.6 0.4 3.6-0.2 1.9-1.3 4.1-1 2.1-2.7 4.5-1.3 1.8-2.9 3.4-1.5 1.7-3.1 2.9-0.5-0.9-0.9-1.9-0.3-0.9-0.7-1.9 1.4-1.2 2.7-2.5 1.3-1.3 2.3-2.7 0.3-0.4 0.7-0.9 0.3-0.5 0.5-1.1 0.3-0.5 0.5-1.1 0.1-0.6 0-1.2 0-0.6-0.3-1.1-0.4-0.6-1-1.1l-3-2.2-0.2 0.2q0.3 1.2 0.3 2.3 0.1 1.1-0.1 2.2-0.3 1.1-0.8 2.2-0.5 1.1-1.4 2.4-1.5 1.9-2.9 2.9-1.3 0.9-2.8 1.1-1.4 0.1-2.9-0.5-1.5-0.5-3.1-1.7l-9-6.5 4-5.6 10.2 7.4q1.3 1 2.5 0.6 1.3-0.3 2.3-1.7 0.6-0.8 0.8-1.7 0.3-0.9 0.4-1.9 0-1-0.1-2-0.1-1-0.3-1.9zm12.1-29.1l4-5.5 16.3 11.8 0.6 0.5q1.2 0.8 2.2 1.4 1 0.6 2.2 0.9-0.3 0.8-0.7 1.5-0.3 0.6-0.6 1.3-0.4 0.7-0.7 1.3-0.4 0.7-0.8 1.4-0.4-0.1-0.8-0.1-0.4-0.1-0.7-0.3-0.4-0.1-0.9-0.4-0.4-0.2-0.9-0.5l-0.2 0.2q1.1 4.4-2 8.7-1.5 2.1-3.2 3.1-1.6 1-3.3 1.2-1.7 0.1-3.3-0.5-1.7-0.6-3.2-1.7-2.1-1.5-3.2-3.5-1-1.9-1.1-4.1 0-2.2 0.8-4.6 0.9-2.3 2.6-4.7 0.7-0.9 1.3-1.6 0.7-0.8 1.4-1.6zm15.9 11.5l-7-5.1q-1.5 1.4-2.5 2.8-0.9 1.1-1.4 2.3-0.5 1.2-0.5 2.4 0 1.1 0.5 2.1 0.6 1 1.8 1.9 1.3 0.9 2.4 1.6 1.2 0.6 2.2 0.7 1.1 0.2 2.1-0.3 1-0.5 1.9-1.8 0.7-0.9 1-1.9 0.2-0.9 0.1-1.8 0-0.7-0.2-1.4-0.2-0.8-0.4-1.5zm-6.4-28q0.5-0.6 1.1-1.1 0.7-0.5 1.3-0.7 0.7-0.2 1.4-0.1 0.6 0 1.1 0.4 0.5 0.4 0.8 0.9 0.2 0.6 0.2 1.3 0 0.7-0.2 1.5-0.3 0.7-0.8 1.4-0.5 0.7-1.1 1.2-0.6 0.5-1.3 0.7-0.7 0.2-1.3 0.1-0.7 0-1.2-0.4-0.5-0.4-0.7-1-0.3-0.6-0.3-1.3 0-0.7 0.3-1.4 0.2-0.8 0.7-1.5zm5.5 8.3l4-5.5 15.4 11.2-4 5.5zm14.2-20.2q1.4-2 3-3.7 1.6-1.6 3-2.7 0.4 0.7 0.7 1.5 0.4 0.8 0.7 1.6-1 0.9-2.2 2.1-1.2 1.2-2.1 2.5-0.6 0.8-1 1.6-0.4 0.7-0.6 1.4-0.2 0.6-0.2 1.1 0.1 0.5 0.5 0.8 0.6 0.5 1.2 0.3 0.6-0.2 1.3-0.6 0.7-0.6 1.5-1.3 0.7-0.8 1.6-1.6 1.3-1.3 2.6-2.3 1.3-1 2.6-1.5 1.3-0.5 2.5-0.4 1.3 0.1 2.5 1 1.2 1 1.5 2.5 0.4 1.4 0 3.1-0.4 1.7-1.4 3.5-1 1.9-2.2 3.6-0.9 1.1-1.8 2.2-0.9 1.1-1.8 2-1 0.9-1.8 1.7-0.9 0.7-1.7 1.2-0.4-0.8-0.7-1.6-0.3-0.9-0.5-1.7 0.6-0.4 1.3-1 0.7-0.7 1.4-1.4 0.7-0.7 1.4-1.5 0.7-0.8 1.3-1.6 0.6-0.9 1.1-1.7 0.4-0.8 0.6-1.6 0.2-0.7 0.1-1.3-0.2-0.6-0.7-1-0.6-0.5-1.3-0.4-0.6 0.2-1.3 0.7-0.8 0.5-1.5 1.2-0.8 0.8-1.6 1.6-1.2 1.3-2.5 2.3-1.3 1-2.6 1.5-1.3 0.5-2.6 0.4-1.3-0.1-2.4-1-1.1-0.8-1.4-2.1-0.2-1.4 0.1-2.9 0.4-1.5 1.3-3.2 0.9-1.7 2.1-3.3zm33.3-20.1l3.8 0.8q-0.4 1-0.9 2.1-0.5 1.2-1.2 2.3-0.6 1.1-1.2 2.1-0.7 1-1.3 1.9-2.1 2.9-4.1 4.5-2 1.7-3.8 2.2-1.9 0.5-3.8 0-1.8-0.5-3.7-1.9-2-1.4-3-3.2-1.1-1.8-1.1-4-0.1-2.2 0.9-4.7 0.9-2.4 2.9-5.2 1.2-1.6 2.5-3.1 1.4-1.5 2.7-2.7l2 3.5q-1.2 1-2.2 2-1 1-1.8 2.2-1.2 1.5-1.6 2.9-0.4 1.4-0.2 2.6 0.1 1.2 0.8 2.2 0.7 1 1.8 1.8 2.6 1.9 4.7 1.6 2.2-0.3 4.2-3.2 1.3-1.7 2.1-3.3 0.8-1.7 1.5-3.4zm-12.7-23.5q0.5-0.7 1.2-1.1 0.6-0.5 1.3-0.7 0.6-0.2 1.3-0.2 0.6 0.1 1.1 0.5 0.6 0.4 0.8 0.9 0.3 0.6 0.3 1.3 0 0.7-0.3 1.5-0.2 0.7-0.7 1.4-0.5 0.7-1.2 1.2-0.6 0.5-1.3 0.7-0.7 0.2-1.3 0.1-0.6 0-1.1-0.4-0.5-0.4-0.8-1-0.3-0.6-0.3-1.3 0-0.7 0.3-1.4 0.2-0.8 0.7-1.5zm5.5 8.3l4-5.5 15.5 11.1-4.1 5.6zm15.3-15.9l0.2-0.2q-1.1-4.4 2-8.7 1.5-2.1 3.2-3.1 1.6-1 3.3-1.1 1.7-0.2 3.3 0.4 1.7 0.6 3.2 1.7 2.1 1.5 3.2 3.5 1 1.9 1.1 4.1 0 2.2-0.9 4.6-0.8 2.3-2.6 4.7-0.6 0.9-1.2 1.7-0.7 0.7-1.4 1.5l5.8 4.2-4 5.5-16.3-11.8q-0.7-0.6-1.3-1-0.6-0.4-1.2-0.8-0.6-0.3-1.2-0.5-0.6-0.3-1.3-0.5 0.7-1.5 1.3-2.8 0.7-1.3 1.5-2.7 0.4 0.1 0.8 0.2 0.3 0 0.7 0.2 0.4 0.1 0.9 0.4 0.4 0.2 0.9 0.5zm3.3 1.8l7 5.1q1.5-1.4 2.5-2.8 0.9-1.1 1.4-2.3 0.5-1.2 0.5-2.3 0-1.2-0.6-2.2-0.5-1-1.7-1.9-1.3-0.9-2.4-1.6-1.2-0.6-2.2-0.7-1.1-0.1-2.1 0.3-1 0.5-1.9 1.8-0.7 1-1 1.9-0.2 0.9-0.1 1.8 0 0.7 0.2 1.5 0.2 0.7 0.4 1.4zm5.7-31.8l15.3 11.1q1.3 0.9 2.1 1.4 0.9 0.6 1.5 1 0.4 0.2 0.7 0.3 0.2 0.1 0.5 0.3 0.3 0.1 0.5 0.2 0.3 0.1 0.7 0.2-0.7 1.5-1.4 3-0.8 1.5-1.7 3-0.8-0.2-1.7-0.5-0.9-0.3-1.8-1l-18.7-13.5zm5-10.2q0.5-0.7 1.1-1.2 0.7-0.4 1.3-0.6 0.7-0.3 1.4-0.2 0.6 0.1 1.1 0.4 0.5 0.4 0.8 1 0.2 0.6 0.2 1.3 0 0.7-0.2 1.5-0.3 0.7-0.8 1.4-0.5 0.7-1.1 1.2-0.6 0.4-1.3 0.6-0.7 0.2-1.3 0.2-0.7-0.1-1.2-0.4-0.5-0.4-0.7-1-0.3-0.6-0.3-1.3 0-0.7 0.2-1.5 0.3-0.7 0.8-1.4zm5.5 8.2l4-5.5 15.4 11.2-4 5.5zm15.7-16l0.2-0.3q-0.3-1.2-0.3-2.3-0.1-1.1 0.2-2.2 0.2-1.1 0.7-2.2 0.5-1.1 1.4-2.3 0.9-1.3 1.9-2.2 1-0.9 1.9-1.3 1-0.5 1.9-0.5 1-0.1 2 0.1 0.9 0.3 1.9 0.8 1 0.5 2 1.2l9 6.6-4 5.5-10.2-7.4q-1.2-0.9-2.5-0.6-1.2 0.3-2.2 1.7-0.6 0.7-0.8 1.7-0.3 0.9-0.4 1.9 0 1 0.1 2 0.1 1 0.3 1.9l9.8 7-4 5.5-9.5-6.9q-1.2-0.8-2.1-1.4-0.8-0.6-1.5-0.9-0.3-0.2-0.6-0.3-0.3-0.2-0.5-0.3-0.3-0.1-0.6-0.2-0.2-0.1-0.6-0.2 0.7-1.5 1.4-2.9 0.8-1.5 1.6-2.9 0.4 0 0.8 0.1 0.4 0.1 0.8 0.3 0.4 0.2 0.8 0.4 0.5 0.3 1.1 0.6zm16.4-20.7l-3.7-0.8q0.3-0.9 0.8-2 0.5-1.1 1.2-2.3 0.6-1.2 1.3-2.4 0.8-1.2 1.7-2.4 1.2-1.7 2.4-3 1.3-1.3 2.4-2 1.2-0.6 2.3-0.6 1.2 0 2.4 0.8l6 4.4q1 0.8 1.8 1.3 0.9 0.6 1.7 1.1 0.3 0.2 0.5 0.3 0.3 0.1 0.5 0.2 0.3 0.1 0.6 0.2 0.3 0.1 0.6 0.2-0.7 1.4-1.4 2.8-0.7 1.4-1.4 2.8-0.6-0.1-1.1-0.3-0.6-0.2-1.2-0.5l-0.2 0.3q0 1.1-0.2 2.1-0.1 1-0.5 1.9-0.3 0.9-0.8 1.8-0.5 0.9-1.2 1.8-1 1.4-2.1 2.4-1.1 1-2.2 1.5-1.2 0.5-2.3 0.5-1.1-0.1-2.2-0.9-0.9-0.6-1.4-1.4-0.5-0.7-0.7-1.6-0.2-0.9-0.2-1.8 0.1-1 0.3-2 0.5-2 1.7-4.1 1.2-2.1 2.7-4.1l1.2-1.7-1.9-1.4q-0.6-0.4-1-0.4-0.5 0-1 0.2-0.4 0.3-0.8 0.8-0.5 0.5-0.9 1.1-1.2 1.6-2.1 3.5-0.9 1.9-1.6 3.7zm14.5-3.8l-3-2.2-0.3 0.4q-1 1.5-1.8 2.9-0.8 1.4-1.2 2.6-0.4 1.3-0.3 2.3 0.2 1 1 1.6 0.9 0.6 2 0.3 1-0.4 2-1.7 0.4-0.6 0.8-1.4 0.4-0.8 0.6-1.6 0.2-0.8 0.3-1.6 0.1-0.8-0.1-1.6zm-7.8-28.7q0.5-0.6 1.1-1.1 0.7-0.5 1.3-0.7 0.7-0.2 1.3-0.1 0.7 0 1.2 0.4 0.5 0.4 0.7 1 0.3 0.5 0.3 1.2 0 0.7-0.2 1.5-0.3 0.7-0.8 1.4-0.5 0.7-1.1 1.2-0.7 0.5-1.3 0.7-0.7 0.2-1.3 0.1-0.7 0-1.2-0.4-0.5-0.4-0.8-1-0.2-0.5-0.2-1.2 0-0.8 0.2-1.5 0.3-0.7 0.8-1.5zm5.5 8.3l4-5.5 15.4 11.2-4 5.5zm15.8-16.2l0.2-0.3q-0.3-1.3-0.4-2.2 0-1 0.2-1.9 0.1-0.9 0.4-1.7 0.3-0.8 0.7-1.6 0.4-0.7 0.9-1.4 0.4-0.6 0.9-1 0.4-0.5 0.8-1 0.4 0.4 0.8 0.9 0.4 0.4 0.8 0.9 0.4 0.4 0.7 0.9 0.4 0.5 0.6 0.9-1 1.1-1.7 1.8-0.7 0.8-1.2 1.5-0.5 0.6-0.7 1.2-0.2 0.6-0.3 1.3-0.1 0.8 0.1 1.7 0.1 0.9 0.4 2.1l9.6 7-4 5.5-9.5-6.9q-0.8-0.6-1.6-1.1-0.7-0.5-1.4-0.9-0.7-0.5-1.4-0.8-0.7-0.3-1.4-0.5 0.7-1.5 1.4-2.9 0.8-1.5 1.6-2.9 0.4 0.1 0.8 0.2 0.4 0.1 0.8 0.2 0.4 0.2 0.8 0.4 0.5 0.3 1.1 0.6zm30.8-22.9l3.7 0.7q-0.3 1-0.8 2.1-0.5 1.2-1.2 2.3-0.6 1.2-1.4 2.3-0.7 1.2-1.4 2.2-3.9 5.3-7.7 6.7-3.9 1.3-7.7-1.5-1.8-1.2-2.9-2.9-1.2-1.7-1.4-3.7-0.3-2.1 0.4-4.6 0.8-2.4 2.9-5.3 3.7-5.1 7.4-6.1 3.8-1.1 7.8 1.9l1.2 0.8-10.8 14.9q1 0.7 2 1 1 0.2 2 0 1-0.3 2-1.2 1.1-0.8 2.2-2.4 1.1-1.5 2-3.3 0.9-1.8 1.7-3.9zm-14.5 7.8l6.7-9.3q-3.7-2.5-6.9 1.8-1.6 2.3-1.5 4.1 0.1 1.9 1.7 3.4z"/>
		</g>
	</g>
</svg>