<svg version="1.2" xmlns="http://www.w3.org/2000/svg" viewBox="0 0 1213 1213" width="1213" height="1213">
	<title>Hamzah logo-svg</title>
	<style>
		.s0 { fill: #ecf0f1 } 
	</style>
	<path id="Layer" fill-rule="evenodd" class="s0" d="m306 293.6c94-225.6 240.6-208.6 269.3-208.2 36.7-0.4 84.7 3.7 146 30.6 107.5 47.2 117.6 106.3 120.6 129.9 26.4 205.6 22.7 235.1 8.3 236.4-12 1-15.9-18.9-23.4-35.5-61.8-137.3-240.6-148.6-307.8-150.9-67.4-2.3-169 27.8-166.9 88.1 1.5 44.2 12.2 93.4 121.9 170.7 0 0 35 21.9 73.8 34.6 104.9 34.3 169.7 46.8 299.2-1.8 89.1-33.4 241.5-123.3 241.5-123.3l11.5 11.1c-12.2 14.3-51.2 104.6-69 144.7-17.7 40-40.9 82.7-58 98-17 15.3-91 60.9-203.1 116.8-385.9 192.3-373.2 369.6-406.9 370.2-9.5 0.2-12.6-7-10-33 27.7-279.9 126-351 126-351-81.8-29-144.5-85-175.9-129.7-64.3-91.8-69.5-224 2.9-397.7zm69.6 292.2c-53.6-149-52.4-198.5-46.6-227.7 12.4-63 94-87.5 139-95.8 0 0 7.5-8.5 15-28.6 2.7-11.2 13.2-30.2-21.2-38-23.6-7-35.5-15-39.8-30.9-29.2 49.7-10.8 62.5-3.3 67.9-72.2 26.8-111.4 70-103.7 168.3 4.5 56.8 32.8 137.2 52.8 188.2 0 0 6.9 15.1 10.7 15.5 1-3 0.3-10.9-2.9-18.9z"/>
</svg>